<svg width="61" height="19" viewBox="0 0 61 19" fill="none" xmlns="http://www.w3.org/2000/svg">
<path d="M0.917969 14.6191C0.945312 14.623 0.972656 14.627 1 14.6309C1.02734 14.6309 1.06641 14.6309 1.11719 14.6309C1.51562 14.6309 1.7793 14.2793 1.9082 13.5762C1.91992 13.5137 1.92969 13.4629 1.9375 13.4238L2.875 8.22656C2.88281 8.16797 2.89062 8.11133 2.89844 8.05664C2.90625 8.00195 2.91016 7.95703 2.91016 7.92188C2.91016 7.74219 2.86523 7.61523 2.77539 7.54102C2.68945 7.4668 2.54102 7.42969 2.33008 7.42969H2.17773L2.23633 7.01953C2.28711 7.02344 2.36523 7.02734 2.4707 7.03125C3.34961 7.0625 4.0625 7.07812 4.60938 7.07812C5.05859 7.07812 5.52734 7.07422 6.01562 7.06641C6.50391 7.05469 7.02344 7.04102 7.57422 7.02539C7.49609 7.31836 7.43359 7.60938 7.38672 7.89844C7.33984 8.18359 7.31055 8.46289 7.29883 8.73633L6.86523 8.74805C6.86523 8.69336 6.86719 8.63281 6.87109 8.56641C6.87891 8.49609 6.88281 8.44922 6.88281 8.42578C6.88281 8.12109 6.77539 7.91602 6.56055 7.81055C6.34961 7.70117 5.85156 7.64648 5.06641 7.64648C4.91016 7.64648 4.62695 7.65234 4.2168 7.66406C4.13867 7.66406 4.07812 7.66602 4.03516 7.66992C4 7.85742 3.94922 8.13867 3.88281 8.51367C3.69531 9.52539 3.55859 10.2832 3.47266 10.7871C3.75391 10.7949 4.0293 10.8008 4.29883 10.8047C4.57227 10.8086 4.89258 10.8105 5.25977 10.8105C5.56445 10.8105 5.77734 10.7598 5.89844 10.6582C6.01953 10.5566 6.11133 10.3633 6.17383 10.0781L6.58984 10.166C6.47656 10.5059 6.38867 10.8457 6.32617 11.1855C6.26758 11.5254 6.23047 11.873 6.21484 12.2285L5.78711 12.2402C5.78711 12.2129 5.78906 12.1602 5.79297 12.082C5.79688 12.0039 5.79883 11.9414 5.79883 11.8945C5.79883 11.668 5.72461 11.5176 5.57617 11.4434C5.43164 11.3652 5.03516 11.3262 4.38672 11.3262H4.25195H3.36133L2.99219 13.5703C2.97266 13.6836 2.95703 13.7871 2.94531 13.8809C2.9375 13.9746 2.93359 14.043 2.93359 14.0859C2.93359 14.2773 3.00195 14.4141 3.13867 14.4961C3.2793 14.5742 3.51367 14.6133 3.8418 14.6133H3.94141L3.86523 15C3.50977 14.9766 3.20898 14.959 2.96289 14.9473C2.7168 14.9355 2.52344 14.9297 2.38281 14.9297C2.125 14.9297 1.86914 14.9355 1.61523 14.9473C1.36133 14.959 1.10352 14.9766 0.841797 15L0.917969 14.6191ZM9.86523 9.90234C9.41211 9.90234 9.02148 10.2129 8.69336 10.834C8.36523 11.4551 8.20117 12.2207 8.20117 13.1309C8.20117 13.6113 8.2832 13.9785 8.44727 14.2324C8.61523 14.4863 8.85742 14.6133 9.17383 14.6133C9.65039 14.6133 10.0547 14.3086 10.3867 13.6992C10.7227 13.0859 10.8906 12.3359 10.8906 11.4492C10.8906 10.9219 10.8066 10.5332 10.6387 10.2832C10.4707 10.0293 10.2129 9.90234 9.86523 9.90234ZM10.1172 9.33398C10.6992 9.33398 11.1406 9.51562 11.4414 9.87891C11.7461 10.2383 11.8984 10.7656 11.8984 11.4609C11.8984 11.8594 11.8203 12.2852 11.6641 12.7383C11.5078 13.1875 11.2969 13.5938 11.0312 13.957C10.7461 14.3477 10.4219 14.6484 10.0586 14.8594C9.69922 15.0664 9.32031 15.1699 8.92188 15.1699C8.39844 15.1699 7.98047 14.9805 7.66797 14.6016C7.35938 14.2227 7.20508 13.7148 7.20508 13.0781C7.20508 12.6055 7.28125 12.1445 7.43359 11.6953C7.58594 11.2461 7.80469 10.8398 8.08984 10.4766C8.37109 10.1133 8.68945 9.83203 9.04492 9.63281C9.4043 9.43359 9.76172 9.33398 10.1172 9.33398ZM15.3145 9.90234C14.8613 9.90234 14.4707 10.2129 14.1426 10.834C13.8145 11.4551 13.6504 12.2207 13.6504 13.1309C13.6504 13.6113 13.7324 13.9785 13.8965 14.2324C14.0645 14.4863 14.3066 14.6133 14.623 14.6133C15.0996 14.6133 15.5039 14.3086 15.8359 13.6992C16.1719 13.0859 16.3398 12.3359 16.3398 11.4492C16.3398 10.9219 16.2559 10.5332 16.0879 10.2832C15.9199 10.0293 15.6621 9.90234 15.3145 9.90234ZM15.5664 9.33398C16.1484 9.33398 16.5898 9.51562 16.8906 9.87891C17.1953 10.2383 17.3477 10.7656 17.3477 11.4609C17.3477 11.8594 17.2695 12.2852 17.1133 12.7383C16.957 13.1875 16.7461 13.5938 16.4805 13.957C16.1953 14.3477 15.8711 14.6484 15.5078 14.8594C15.1484 15.0664 14.7695 15.1699 14.3711 15.1699C13.8477 15.1699 13.4297 14.9805 13.1172 14.6016C12.8086 14.2227 12.6543 13.7148 12.6543 13.0781C12.6543 12.6055 12.7305 12.1445 12.8828 11.6953C13.0352 11.2461 13.2539 10.8398 13.5391 10.4766C13.8203 10.1133 14.1387 9.83203 14.4941 9.63281C14.8535 9.43359 15.2109 9.33398 15.5664 9.33398ZM21.332 12.9023L21.7715 10.248C21.5566 10.123 21.3652 10.0332 21.1973 9.97852C21.0293 9.91992 20.873 9.89062 20.7285 9.89062C20.248 9.89062 19.8438 10.1992 19.5156 10.8164C19.1875 11.4297 19.0234 12.1953 19.0234 13.1133C19.0234 13.4844 19.0664 13.7656 19.1523 13.957C19.2422 14.1484 19.373 14.2441 19.5449 14.2441C19.6621 14.2441 19.8789 14.125 20.1953 13.8867C20.5156 13.6484 20.8945 13.3203 21.332 12.9023ZM21.3438 13.5L20.3477 14.4023C20.0547 14.668 19.8203 14.8516 19.6445 14.9531C19.4727 15.0547 19.3105 15.1055 19.1582 15.1055C18.8066 15.1055 18.5371 14.957 18.3496 14.6602C18.1621 14.3594 18.0684 13.9277 18.0684 13.3652C18.0684 12.2559 18.3477 11.3027 18.9062 10.5059C19.4688 9.70898 20.1367 9.31055 20.9102 9.31055C21.0664 9.31055 21.2246 9.33203 21.3848 9.375C21.5488 9.41406 21.7188 9.47266 21.8945 9.55078L22.2285 7.42969C22.2402 7.34766 22.248 7.26562 22.252 7.18359C22.2598 7.09766 22.2637 7.01172 22.2637 6.92578C22.2637 6.76953 22.2324 6.66211 22.1699 6.60352C22.1074 6.54492 21.9922 6.51562 21.8242 6.51562C21.7734 6.51562 21.7207 6.51758 21.666 6.52148C21.6152 6.52148 21.5586 6.52344 21.4961 6.52734L21.4727 6.18164C21.7969 6.15039 22.123 6.10742 22.4512 6.05273C22.7832 5.99805 23.1172 5.93164 23.4531 5.85352C23.0898 7.72852 22.791 9.42188 22.5566 10.9336C22.3223 12.4414 22.2051 13.3574 22.2051 13.6816C22.2051 13.8809 22.2227 14.0215 22.2578 14.1035C22.2969 14.1816 22.3594 14.2207 22.4453 14.2207C22.4922 14.2207 22.5469 14.2012 22.6094 14.1621C22.6758 14.123 22.7578 14.0586 22.8555 13.9688L23.2129 13.6465L23.4062 13.9805L22.7324 14.6426C22.498 14.8691 22.3281 15.0137 22.2227 15.0762C22.1172 15.1387 22.0156 15.1699 21.918 15.1699C21.7109 15.1699 21.5586 15.0723 21.4609 14.877C21.3672 14.6816 21.3203 14.3789 21.3203 13.9688C21.3203 13.8789 21.3223 13.7988 21.3262 13.7285C21.3301 13.6543 21.3359 13.5781 21.3438 13.5ZM24.9238 7.01953C24.9785 7.02344 25.0605 7.0293 25.1699 7.03711C25.7246 7.07227 26.1133 7.08984 26.3359 7.08984C26.5586 7.08984 26.7812 7.08398 27.0039 7.07227C27.2266 7.06055 27.457 7.04297 27.6953 7.01953L27.6191 7.42969H27.5605C27.3105 7.42969 27.125 7.47461 27.0039 7.56445C26.8828 7.65039 26.7891 7.8125 26.7227 8.05078C26.6328 8.38672 26.4844 9.13867 26.2773 10.3066C26.0742 11.4746 25.8633 12.8066 25.6445 14.3027C25.918 14.3301 26.1855 14.3516 26.4473 14.3672C26.709 14.3828 26.9648 14.3906 27.2148 14.3906C27.832 14.3906 28.2617 14.3047 28.5039 14.1328C28.7461 13.9609 28.9277 13.6309 29.0488 13.1426L29.4824 13.2012C29.3848 13.5176 29.3008 13.8242 29.2305 14.1211C29.1641 14.4141 29.1074 14.707 29.0605 15C28.1934 14.9688 27.5234 14.9473 27.0508 14.9355C26.5781 14.9238 26.1719 14.918 25.832 14.918C25.5312 14.918 25.2012 14.9238 24.8418 14.9355C24.4863 14.9473 24.0527 14.9688 23.541 15L23.5996 14.6191C23.6309 14.6191 23.668 14.6211 23.7109 14.625C23.75 14.6289 23.8008 14.6309 23.8633 14.6309C24.2734 14.6309 24.5449 14.2559 24.6777 13.5059C24.6855 13.459 24.6914 13.4238 24.6953 13.4004L25.5684 8.53711C25.6035 8.34961 25.627 8.2168 25.6387 8.13867C25.6504 8.06055 25.6562 7.99609 25.6562 7.94531C25.6562 7.74219 25.6016 7.60547 25.4922 7.53516C25.3828 7.46484 25.1641 7.42969 24.8359 7.42969L24.9238 7.01953ZM32.8457 9.90234C32.3926 9.90234 32.002 10.2129 31.6738 10.834C31.3457 11.4551 31.1816 12.2207 31.1816 13.1309C31.1816 13.6113 31.2637 13.9785 31.4277 14.2324C31.5957 14.4863 31.8379 14.6133 32.1543 14.6133C32.6309 14.6133 33.0352 14.3086 33.3672 13.6992C33.7031 13.0859 33.8711 12.3359 33.8711 11.4492C33.8711 10.9219 33.7871 10.5332 33.6191 10.2832C33.4512 10.0293 33.1934 9.90234 32.8457 9.90234ZM33.0977 9.33398C33.6797 9.33398 34.1211 9.51562 34.4219 9.87891C34.7266 10.2383 34.8789 10.7656 34.8789 11.4609C34.8789 11.8594 34.8008 12.2852 34.6445 12.7383C34.4883 13.1875 34.2773 13.5938 34.0117 13.957C33.7266 14.3477 33.4023 14.6484 33.0391 14.8594C32.6797 15.0664 32.3008 15.1699 31.9023 15.1699C31.3789 15.1699 30.9609 14.9805 30.6484 14.6016C30.3398 14.2227 30.1855 13.7148 30.1855 13.0781C30.1855 12.6055 30.2617 12.1445 30.4141 11.6953C30.5664 11.2461 30.7852 10.8398 31.0703 10.4766C31.3516 10.1133 31.6699 9.83203 32.0254 9.63281C32.3848 9.43359 32.7422 9.33398 33.0977 9.33398ZM36.9648 15.2344C36.9727 15.0508 36.9785 14.8965 36.9824 14.7715C36.9863 14.6465 36.9883 14.5273 36.9883 14.4141C36.9883 13.7266 36.9609 13.0371 36.9062 12.3457C36.8555 11.6543 36.791 11.0742 36.7129 10.6055C36.6855 10.4414 36.6445 10.3164 36.5898 10.2305C36.5391 10.1445 36.4766 10.1016 36.4023 10.1016C36.3008 10.1016 36.1016 10.2461 35.8047 10.5352L35.7637 10.5703L35.5469 10.248C35.8789 9.88477 36.1367 9.63477 36.3203 9.49805C36.5078 9.35742 36.6758 9.28711 36.8242 9.28711C37.3555 9.28711 37.6621 10.7539 37.7441 13.6875C37.748 13.8867 37.752 14.041 37.7559 14.1504C38.3066 13.2012 38.7383 12.3965 39.0508 11.7363C39.3633 11.0723 39.5195 10.6367 39.5195 10.4297C39.5195 10.332 39.502 10.2441 39.4668 10.166C39.4316 10.084 39.373 10.0039 39.291 9.92578L39.6426 9.55078C39.7324 9.45312 39.8145 9.38477 39.8887 9.3457C39.9629 9.30664 40.0449 9.28711 40.1348 9.28711C40.2559 9.28711 40.3535 9.33789 40.4277 9.43945C40.502 9.53711 40.5391 9.66602 40.5391 9.82617C40.5391 10.1621 40.0605 11.1445 39.1035 12.7734L38.7637 13.3535L37.7676 15.0586L36.9648 15.2344ZM42.0801 12.3574L42.1387 12.3281C43.5293 11.6172 44.2246 11.0684 44.2246 10.6816C44.2246 10.4746 44.1504 10.2949 44.002 10.1426C43.8535 9.99023 43.6797 9.91406 43.4805 9.91406C43.1719 9.91406 42.8945 10.127 42.6484 10.5527C42.4023 10.9785 42.2129 11.5801 42.0801 12.3574ZM43.8438 11.9531L42.0508 12.8789V12.9375C42.0508 13.4023 42.123 13.7559 42.2676 13.998C42.416 14.2402 42.6289 14.3613 42.9062 14.3613C43.0703 14.3613 43.2754 14.2891 43.5215 14.1445C43.7715 13.9961 44.0898 13.7578 44.4766 13.4297L44.6816 13.7988C44.123 14.3145 43.6777 14.6719 43.3457 14.8711C43.0176 15.0703 42.7188 15.1699 42.4492 15.1699C42.0391 15.1699 41.707 14.9922 41.4531 14.6367C41.1992 14.2812 41.0723 13.8145 41.0723 13.2363C41.0723 12.8262 41.1387 12.3867 41.2715 11.918C41.4082 11.4453 41.584 11.0332 41.7988 10.6816C42.0684 10.252 42.377 9.91992 42.7246 9.68555C43.0723 9.45117 43.4316 9.33398 43.8027 9.33398C44.1816 9.33398 44.498 9.45508 44.752 9.69727C45.0098 9.93555 45.1387 10.2266 45.1387 10.5703C45.1387 10.8477 45.0605 11.0781 44.9043 11.2617C44.752 11.4414 44.3984 11.6719 43.8438 11.9531ZM45.918 15.1582C46.1641 14.1426 46.3555 13.2461 46.4922 12.4688C46.6289 11.6875 46.6973 11.0996 46.6973 10.7051C46.6973 10.5371 46.6719 10.4121 46.6211 10.3301C46.5742 10.2441 46.5039 10.2012 46.4102 10.2012C46.3398 10.2012 46.1426 10.3027 45.8184 10.5059L45.7715 10.5352L45.5664 10.2012L45.6543 10.1367C46.3574 9.60938 46.8125 9.3457 47.0195 9.3457C47.2109 9.3457 47.3477 9.4082 47.4297 9.5332C47.5156 9.6543 47.5586 9.85742 47.5586 10.1426C47.5586 10.3926 47.5508 10.627 47.5352 10.8457C47.5195 11.0605 47.4961 11.2461 47.4648 11.4023C48 10.5195 48.3809 9.95703 48.6074 9.71484C48.834 9.46875 49.0449 9.3457 49.2402 9.3457C49.373 9.3457 49.4844 9.39453 49.5742 9.49219C49.6641 9.58984 49.709 9.70898 49.709 9.84961C49.709 9.93555 49.6855 10.041 49.6387 10.166C49.5957 10.2871 49.502 10.4902 49.3574 10.7754C49.2871 10.6777 49.2148 10.6055 49.1406 10.5586C49.0664 10.5117 48.9922 10.4883 48.918 10.4883C48.7734 10.4883 48.6016 10.5898 48.4023 10.793C48.207 10.9922 47.8984 11.3945 47.4766 12C47.3438 12.5391 47.2324 13.0527 47.1426 13.541C47.0527 14.0254 46.9844 14.4844 46.9375 14.918L45.918 15.1582ZM53.5293 10.3066L53.2012 10.6172L53.1602 10.582C52.7148 10.1758 52.377 9.97266 52.1465 9.97266C51.9277 9.97266 51.7461 10.0391 51.6016 10.1719C51.4609 10.3008 51.3906 10.4668 51.3906 10.6699C51.3906 10.9824 51.6621 11.3652 52.2051 11.8184C52.2715 11.873 52.3203 11.9141 52.3516 11.9414C52.7539 12.2852 53.0176 12.5547 53.1426 12.75C53.2715 12.9453 53.3359 13.1562 53.3359 13.3828C53.3359 13.8164 53.1211 14.2207 52.6914 14.5957C52.2656 14.9707 51.7793 15.1582 51.2324 15.1582C50.8457 15.1582 50.5254 15.0918 50.2715 14.959C50.0176 14.8262 49.8906 14.6641 49.8906 14.4727C49.8906 14.3984 49.9023 14.334 49.9258 14.2793C49.9492 14.2246 50.002 14.1562 50.084 14.0742L50.3945 13.7871C50.6523 14.0723 50.8672 14.2715 51.0391 14.3848C51.2109 14.498 51.3789 14.5547 51.543 14.5547C51.7891 14.5547 51.998 14.4727 52.1699 14.3086C52.3457 14.1406 52.4336 13.9434 52.4336 13.7168C52.4336 13.459 52.166 13.0918 51.6309 12.6152C51.4902 12.4902 51.3828 12.3926 51.3086 12.3223C50.9961 12.041 50.7812 11.8066 50.6641 11.6191C50.5469 11.4316 50.4883 11.2422 50.4883 11.0508C50.4883 10.6328 50.6992 10.2422 51.1211 9.87891C51.5469 9.51562 52.0117 9.33398 52.5156 9.33398C52.8516 9.33398 53.1309 9.39648 53.3535 9.52148C53.5801 9.64648 53.6934 9.79297 53.6934 9.96094C53.6934 10.0273 53.6797 10.0898 53.6523 10.1484C53.625 10.2031 53.584 10.2559 53.5293 10.3066Z" fill="black"/>
<path d="M58.1196 4.16602L58.1284 5.57227H57.9219C57.8281 5.17969 57.6787 4.88232 57.4736 4.68018C57.2686 4.4751 57.0166 4.37256 56.7178 4.37256C56.3779 4.37256 56.1201 4.51025 55.9443 4.78564C55.7686 5.06104 55.6807 5.46387 55.6807 5.99414C55.6807 6.5332 55.7759 6.94629 55.9663 7.2334C56.1567 7.51758 56.4336 7.65967 56.7969 7.65967C57.0371 7.65967 57.2583 7.59668 57.4604 7.4707C57.6626 7.3418 57.8472 7.1499 58.0142 6.89502L58.2031 7.00928C58.0186 7.32568 57.7988 7.56152 57.5439 7.7168C57.2891 7.86914 56.9961 7.94531 56.665 7.94531C56.1465 7.94531 55.71 7.76367 55.3555 7.40039C55.0039 7.03711 54.8281 6.58887 54.8281 6.05566C54.8281 5.5166 55.0024 5.06396 55.3511 4.69775C55.7026 4.33154 56.1362 4.14844 56.6519 4.14844C56.8862 4.14844 57.1118 4.19678 57.3286 4.29346C57.5454 4.39014 57.6597 4.43848 57.6714 4.43848C57.7534 4.43848 57.8135 4.41797 57.8516 4.37695C57.8926 4.33594 57.9219 4.26562 57.9395 4.16602H58.1196ZM59.4336 6.02051C59.4336 5.65723 59.3633 5.3042 59.2227 4.96143C59.082 4.61572 58.8828 4.31543 58.625 4.06055C58.373 3.80859 58.0801 3.61377 57.7461 3.47607C57.4121 3.33545 57.0664 3.26514 56.709 3.26514C56.3398 3.26514 55.9868 3.33545 55.6499 3.47607C55.313 3.6167 55.0171 3.81738 54.7622 4.07812C54.5044 4.3418 54.3066 4.64062 54.1689 4.97461C54.0312 5.30566 53.9624 5.6543 53.9624 6.02051C53.9624 6.38965 54.0312 6.74121 54.1689 7.0752C54.3096 7.40625 54.5103 7.70215 54.771 7.96289C55.0376 8.22949 55.332 8.43018 55.6543 8.56494C55.9795 8.69971 56.3281 8.76709 56.7002 8.76709C57.0693 8.76709 57.418 8.69824 57.7461 8.56055C58.0771 8.42285 58.3701 8.22363 58.625 7.96289C58.8828 7.70215 59.082 7.40332 59.2227 7.06641C59.3633 6.72656 59.4336 6.37793 59.4336 6.02051ZM56.709 2.84326C57.1191 2.84326 57.5176 2.92529 57.9043 3.08936C58.2939 3.25049 58.6367 3.47754 58.9326 3.77051C59.2285 4.06934 59.4585 4.41504 59.6226 4.80762C59.7866 5.19727 59.8687 5.60156 59.8687 6.02051C59.8687 6.43652 59.7866 6.83789 59.6226 7.22461C59.4614 7.61133 59.2314 7.95703 58.9326 8.26172C58.6367 8.56055 58.2983 8.78906 57.9175 8.94727C57.5366 9.10254 57.1309 9.18018 56.7002 9.18018C56.2754 9.18018 55.8726 9.10254 55.4917 8.94727C55.1138 8.79199 54.7725 8.56348 54.4678 8.26172C54.1631 7.95703 53.9302 7.61426 53.769 7.2334C53.6108 6.84961 53.5317 6.44531 53.5317 6.02051C53.5317 5.60156 53.6108 5.2002 53.769 4.81641C53.9272 4.42969 54.1572 4.08398 54.459 3.7793C54.7578 3.48047 55.1021 3.25049 55.4917 3.08936C55.8813 2.92529 56.2871 2.84326 56.709 2.84326Z" fill="black"/>
</svg>
